# xmcd CD database file
#
# Track frame offsets:
#	150
#	11702
#	23102
#	35885
#	52917
#	68965
#	79862
#	91611
#	106103
#	114423
#	127134
#	139831
#	158890
#	170008
#	181359
#	194167
#	206825
#	217774
#	232086
#	243486
#	252636
#	265187
#	277025
#	288999
#
# Disc length: 3990 seconds
#
# Revision: 0
# Processed by: cddbd v1.5.2PL0 Copyright (c) Steve Scherf et al.
# Submitted via: CDex 1.70beta2
#
DISCID=6c0f9418
DTITLE=Diverse Best Of Country and Western - Best Of Country and Western
DYEAR=2007
DGENRE=Country
TTITLE0=Johnny Cash - Ring of fire
TTITLE1=Lynn Anderson - Listen to a country song
TTITLE2=Kenny Rogers - Ruby, don´t take your love to town
TTITLE3=The Bellamy Brothers - Sugar Daddy
TTITLE4=Linda Ronstadt - Better walk the line
TTITLE5=Roger Miller - King of the road
TTITLE6=Tennessee Ernie Ford - Sixteen tons
TTITLE7=Boxcar Willie - Only in my mind
TTITLE8=Billy Jo Spears - Rocky top
TTITLE9=David Allan Coe - Lead me not into temptation
TTITLE10=Porter Wagoner - Sitisfied mind
TTITLE11=Billy Swan - Don´t be cruel
TTITLE12=Waylon Jennings - Sally was a good old girl
TTITLE13=Johnny Horton - The battle of New Orleans
TTITLE14=Tammy Wynette - Womanhood
TTITLE15=The Gatlin Brothers - All the gold in California
TTITLE16=Hank Locklin - Send me the pillow that you dream on
TTITLE17=The Bellamy Brothers - If I said you have a beautifull body
TTITLE18=Mary Robbins - A white sport coat (and a pink carnation)
TTITLE19=Franke Laine - Rawhide
TTITLE20=Hank Wiliams - I´m so lonesome I could cry
TTITLE21=Tina Turner - Stand by your man
TTITLE22=Elvis Presley - Blue moon
TTITLE23=Johnny Cash - You win again
EXTD=YEAR: 2007
EXTT0=
EXTT1=
EXTT2=
EXTT3=
EXTT4=
EXTT5=
EXTT6=
EXTT7=
EXTT8=
EXTT9=
EXTT10=
EXTT11=
EXTT12=
EXTT13=
EXTT14=
EXTT15=
EXTT16=
EXTT17=
EXTT18=
EXTT19=
EXTT20=
EXTT21=
EXTT22=
EXTT23=
PLAYORDER=
